# xmcd
#
# Track frame offsets: 
#        150
#        17775
#        33816
#        47383
#        59402
#        74252
#        91962
#        103410
#        117173
#        129493
#
# Disc length: 1963 seconds
#
# Revision: 0
# Processed by: cddbd v1.5.2PL0 Copyright (c) Steve Scherf et al.
# Submitted via: ExactAudioCopyFreeDBPlugin 1.0
#
DISCID=8107a90a
DTITLE=Hodja - The Flood
DYEAR=2018
DGENRE=Blues
TTITLE0=Everything Is Everything
TTITLE1=The Sour Taste
TTITLE2=The Flood
TTITLE3=On And On
TTITLE4=Ego
TTITLE5=Not Karma
TTITLE6=Big Tease
TTITLE7=Never Kneel
TTITLE8=The Void
TTITLE9=Desperate Souls
EXTD=
EXTT0=
EXTT1=
EXTT2=
EXTT3=
EXTT4=
EXTT5=
EXTT6=
EXTT7=
EXTT8=
EXTT9=
PLAYORDER=
